<svg xmlns="http://www.w3.org/2000/svg" xmlns:xlink="http://www.w3.org/1999/xlink" viewBox="0 0 266.18 106.82"><defs><style>.cls-1{isolation:isolate;}.cls-2,.cls-5,.cls-8,.cls-9{stroke:#cf000f;stroke-miterlimit:10;}.cls-2{fill:url(#linear-gradient);}.cls-3{fill:url(#linear-gradient-2);}.cls-4{fill:#cf000f;}.cls-5{fill:url(#linear-gradient-3);}.cls-6{fill:url(#linear-gradient-4);}.cls-7{fill:url(#linear-gradient-5);}.cls-8{fill:url(#linear-gradient-6);}.cls-9{fill:url(#linear-gradient-7);}.cls-10{fill:url(#linear-gradient-8);}.cls-11{fill:url(#linear-gradient-9);}.cls-12,.cls-14{mix-blend-mode:multiply;}.cls-12{fill:url(#linear-gradient-10);}.cls-13{fill:url(#linear-gradient-11);}.cls-14{fill:url(#linear-gradient-12);}.cls-15{mix-blend-mode:screen;fill:url(#linear-gradient-13);}</style><linearGradient id="linear-gradient" x1="138.38" y1="91.5" x2="138.38" y2="113.34" gradientUnits="userSpaceOnUse"><stop offset="0" stop-color="#e4e6e8"/><stop offset="0.06" stop-color="#e1e2e4"/><stop offset="0.11" stop-color="#d6d8d9"/><stop offset="0.16" stop-color="#c4c5c6"/><stop offset="0.21" stop-color="#abacac"/><stop offset="0.23" stop-color="#9f9f9f"/><stop offset="0.66" stop-color="#ebebeb"/><stop offset="0.76" stop-color="#f2f2f2"/><stop offset="1" stop-color="#fff"/></linearGradient><linearGradient id="linear-gradient-2" x1="102.21" y1="103.35" x2="135.53" y2="103.56" gradientUnits="userSpaceOnUse"><stop offset="0" stop-color="#e4e6e8"/><stop offset="0.06" stop-color="#e1e2e4"/><stop offset="0.11" stop-color="#d6d8d9"/><stop offset="0.16" stop-color="#c4c5c6"/><stop offset="0.21" stop-color="#abacac"/><stop offset="0.23" stop-color="#9f9f9f"/><stop offset="0.34" stop-color="#b3b3b3"/><stop offset="0.72" stop-color="#f6f6f6"/><stop offset="0.9" stop-color="#ebebeb"/><stop offset="0.93" stop-color="#f2f2f2"/><stop offset="1" stop-color="#fff"/></linearGradient><linearGradient id="linear-gradient-3" x1="59.3" y1="128.8" x2="215.93" y2="40.74" gradientUnits="userSpaceOnUse"><stop offset="0.03" stop-color="#b8b8b8"/><stop offset="0.89" stop-color="#fff"/></linearGradient><linearGradient id="linear-gradient-4" x1="67.56" y1="72.61" x2="222.18" y2="-29.24" gradientUnits="userSpaceOnUse"><stop offset="0.03" stop-color="#e8e8e9"/><stop offset="0.89" stop-color="#fff"/></linearGradient><linearGradient id="linear-gradient-5" x1="175.07" y1="100.9" x2="280.53" y2="31.43" xlink:href="#linear-gradient-4"/><linearGradient id="linear-gradient-6" x1="175.25" y1="109.14" x2="281.68" y2="109.14" gradientUnits="userSpaceOnUse"><stop offset="0" stop-color="#2c2c2c"/><stop offset="0.01" stop-color="#4b4b4b"/><stop offset="0.02" stop-color="#636363"/><stop offset="0.02" stop-color="#6c6c6c"/><stop offset="0.03" stop-color="#767676"/><stop offset="0.04" stop-color="#919191"/><stop offset="0.04" stop-color="#a4a4a4"/><stop offset="0.05" stop-color="#afafaf"/><stop offset="0.06" stop-color="#b3b3b3"/><stop offset="0.07" stop-color="#b2b2b2"/><stop offset="0.13" stop-color="#a5a5a5"/><stop offset="0.84" stop-color="#a5a5a5"/><stop offset="0.84" stop-color="#a6a6a6"/><stop offset="0.93" stop-color="#b4b4b4"/><stop offset="0.94" stop-color="#aeaeae"/><stop offset="0.95" stop-color="#9e9e9e"/><stop offset="0.97" stop-color="#838383"/><stop offset="0.98" stop-color="#6c6c6c"/><stop offset="1" stop-color="#2c2c2c"/></linearGradient><linearGradient id="linear-gradient-7" x1="175.25" y1="108.07" x2="281.68" y2="108.07" gradientUnits="userSpaceOnUse"><stop offset="0" stop-color="#49494a"/><stop offset="0" stop-color="#565657"/><stop offset="0.01" stop-color="#7d7d7e"/><stop offset="0.02" stop-color="#969696"/><stop offset="0.02" stop-color="#9f9f9f"/><stop offset="0.03" stop-color="#c1c1c1"/><stop offset="0.04" stop-color="#dcdcdc"/><stop offset="0.05" stop-color="#efefef"/><stop offset="0.05" stop-color="#fafafa"/><stop offset="0.06" stop-color="#fefefe"/><stop offset="0.08" stop-color="#f8f8f8"/><stop offset="0.13" stop-color="#ebebeb"/><stop offset="0.84" stop-color="#ebebeb"/><stop offset="0.86" stop-color="#f1f1f1"/><stop offset="0.93" stop-color="#fff"/><stop offset="0.94" stop-color="#f9f9f9"/><stop offset="0.95" stop-color="#e9e9e9"/><stop offset="0.96" stop-color="#cecece"/><stop offset="0.97" stop-color="#a8a8a8"/><stop offset="0.98" stop-color="#9f9f9f"/><stop offset="1" stop-color="#49494a"/></linearGradient><linearGradient id="linear-gradient-8" x1="216.37" y1="107.32" x2="275.17" y2="107.32" gradientUnits="userSpaceOnUse"><stop offset="0" stop-color="#2c2c2c"/><stop offset="0.06" stop-color="#4b4b4b"/><stop offset="0.12" stop-color="#636363"/><stop offset="0.15" stop-color="#6c6c6c"/><stop offset="0.16" stop-color="#747474"/><stop offset="0.19" stop-color="#8f8f8f"/><stop offset="0.21" stop-color="#a2a2a2"/><stop offset="0.24" stop-color="#adadad"/><stop offset="0.27" stop-color="#b1b1b1"/><stop offset="0.37" stop-color="#a5a5a5"/><stop offset="0.69" stop-color="#a5a5a5"/><stop offset="0.69" stop-color="#a6a6a6"/><stop offset="0.78" stop-color="#b4b4b4"/><stop offset="0.8" stop-color="#aeaeae"/><stop offset="0.82" stop-color="#9e9e9e"/><stop offset="0.85" stop-color="#838383"/><stop offset="0.88" stop-color="#6c6c6c"/><stop offset="1" stop-color="#2c2c2c"/></linearGradient><linearGradient id="linear-gradient-9" x1="0.28" y1="99.37" x2="27.81" y2="59.87" xlink:href="#linear-gradient-4"/><linearGradient id="linear-gradient-10" x1="28.22" y1="105.44" x2="26.61" y2="109.1" gradientUnits="userSpaceOnUse"><stop offset="0.23"/><stop offset="1" stop-color="#1c1c1c"/></linearGradient><linearGradient id="linear-gradient-11" x1="36.18" y1="100.07" x2="78.77" y2="38.96" xlink:href="#linear-gradient-4"/><linearGradient id="linear-gradient-12" x1="70.54" y1="104.17" x2="68.3" y2="109.27" xlink:href="#linear-gradient-10"/><linearGradient id="linear-gradient-13" x1="106.31" y1="60.72" x2="49.32" y2="92.54" gradientUnits="userSpaceOnUse"><stop offset="0"/><stop offset="0.29" stop-color="#020202"/><stop offset="0.43" stop-color="#0a0a0a"/><stop offset="0.53" stop-color="#171717"/><stop offset="0.62" stop-color="#292929"/><stop offset="0.7" stop-color="#414141"/><stop offset="0.77" stop-color="#5e5e5e"/><stop offset="0.84" stop-color="#818181"/><stop offset="0.9" stop-color="#aaa"/><stop offset="0.96" stop-color="#d7d7d7"/><stop offset="1" stop-color="#fff"/></linearGradient></defs><title>djudo-tech-devies</title><g class="cls-1"><g id="Layer_1" data-name="Layer 1"><path class="cls-2" d="M157.25,104a14,14,0,0,1-3.63-9.83V90.26H123.14v3.92a14,14,0,0,1-3.63,9.83l-3.57,3.52h44.88Z" transform="translate(-16 -4.64)"/><rect class="cls-3" x="99.94" y="102.91" width="44.88" height="1.13"/><path class="cls-4" d="M202.47,85.58V7.16a2.52,2.52,0,0,0-2.52-2.52H76.82A2.52,2.52,0,0,0,74.3,7.16V85.58H202.47Z" transform="translate(-16 -4.64)"/><path class="cls-5" d="M74.3,78V89.24a2.52,2.52,0,0,0,2.52,2.52H199.95a2.52,2.52,0,0,0,2.52-2.52V78H74.3Z" transform="translate(-16 -4.64)"/><rect class="cls-6" x="62.2" y="3.97" width="120.27" height="65.11"/><path class="cls-4" d="M272.17,108.33V57.73A1.72,1.72,0,0,0,270.46,56h-84a1.72,1.72,0,0,0-1.72,1.72v50.6h87.43Z" transform="translate(-16 -4.64)"/><rect class="cls-7" x="171.41" y="54.09" width="82.04" height="44.41"/><path class="cls-8" d="M175.25,107.33V109c0,0.44,5.76,2,6.55,2h93.33c0.79,0,6.55-1.54,6.55-2v-1.64H175.25Z" transform="translate(-16 -4.64)"/><path class="cls-9" d="M281.68,108.68c0,0.45-.71.81-1.59,0.81H176.83c-0.88,0-1.59-.36-1.59-0.81v-1.21c0-.45.71-0.8,1.59-0.8H280.09c0.88,0,1.59.36,1.59,0.8v1.21Z" transform="translate(-16 -4.64)"/><path class="cls-10" d="M239.11,107H217.82a0.65,0.65,0,0,1-.52-0.26v0.6a0.63,0.63,0,0,0,.63.63H239a0.63,0.63,0,0,0,.63-0.63v-0.6A0.65,0.65,0,0,1,239.11,107Z" transform="translate(-16 -4.64)"/><rect class="cls-4" y="62.55" width="22.95" height="41.5" rx="1.2" ry="1.2"/><rect class="cls-11" x="0.82" y="65.76" width="21.3" height="35.09"/><path class="cls-12" d="M29.38,107.14a0.53,0.53,0,0,1-.53.53H26.09a0.53,0.53,0,0,1-.53-0.53h0a0.53,0.53,0,0,1,.53-0.53h2.77a0.53,0.53,0,0,1,.53.53h0Z" transform="translate(-16 -4.64)"/><rect class="cls-4" x="32.21" y="46.49" width="42.58" height="57.47" rx="2.22" ry="2.22"/><rect class="cls-13" x="33.74" y="50.37" width="39.52" height="49.71"/><path class="cls-14" d="M72.16,106.54a0.74,0.74,0,0,1-.74.74H67.57a0.74,0.74,0,0,1-.74-0.74h0a0.74,0.74,0,0,1,.74-0.74h3.85a0.74,0.74,0,0,1,.74.74h0Z" transform="translate(-16 -4.64)"/><path class="cls-15" d="M89,108.54a2.22,2.22,0,0,0,1.74-2.16v-53a2.22,2.22,0,0,0-2.22-2.22H54.93" transform="translate(-16 -4.64)"/></g></g></svg>